<?xml version="1.0" encoding="UTF-8" standalone="no"?>
<svg
   width="16"
   height="16"
   viewBox="0 0 16 16"
   fill="none"
   version="1.1"
   id="svg1"
   sodipodi:docname="restart-kernel.svg"
   inkscape:version="1.3.2 (091e20ef0f, 2023-11-25, custom)"
   xmlns:inkscape="http://www.inkscape.org/namespaces/inkscape"
   xmlns:sodipodi="http://sodipodi.sourceforge.net/DTD/sodipodi-0.dtd"
   xmlns="http://www.w3.org/2000/svg"
   xmlns:svg="http://www.w3.org/2000/svg">
  <defs
     id="defs1" />
  <sodipodi:namedview
     id="namedview1"
     pagecolor="#ffffff"
     bordercolor="#000000"
     borderopacity="0.25"
     inkscape:showpageshadow="2"
     inkscape:pageopacity="0.0"
     inkscape:pagecheckerboard="0"
     inkscape:deskcolor="#d1d1d1"
     inkscape:zoom="31.5625"
     inkscape:cx="7.9841584"
     inkscape:cy="8"
     inkscape:window-width="1366"
     inkscape:window-height="705"
     inkscape:window-x="0"
     inkscape:window-y="0"
     inkscape:window-maximized="1"
     inkscape:current-layer="svg1" />
  <path
     style="fill:#007acc;fill-rule:evenodd;clip-rule:evenodd;fill-opacity:1"
     d="M12.75 8C12.75 10.4853 10.7353 12.5 8.24999 12.5C6.41795 12.5 4.84162 11.4052 4.13953 9.83416L2.74882 10.399C3.67446 12.5186 5.78923 14 8.24999 14C11.5637 14 14.25 11.3137 14.25 8C14.25 4.68629 11.5637 2 8.24999 2C6.3169 2 4.59732 2.91418 3.5 4.3338V2.5H2V6.5L2.75 7.25H6.25V5.75H4.35201C5.13008 4.40495 6.58436 3.5 8.24999 3.5C10.7353 3.5 12.75 5.51472 12.75 8Z"
     id="path1" />
</svg>
